<?xml version="1.0" encoding="utf-8"?>
<!-- Generator: Adobe Illustrator 16.0.0, SVG Export Plug-In . SVG Version: 6.00 Build 0)  -->
<!DOCTYPE svg PUBLIC "-//W3C//DTD SVG 1.1//EN" "http://www.w3.org/Graphics/SVG/1.1/DTD/svg11.dtd">
<svg version="1.1" id="Layer_1" xmlns="http://www.w3.org/2000/svg" xmlns:xlink="http://www.w3.org/1999/xlink" x="0px" y="0px"
	 width="470px" height="246px" viewBox="0 0 470 246" enable-background="new 0 0 470 246" xml:space="preserve">
<rect x="31.762" y="36.381" fill="#FFFFFF" width="420.477" height="176.19"/>
<g>
	<path fill="#16B14B" d="M220.323,81.2c-10.647,0-19.807,6.994-23.475,16.828c-0.191,0.502-0.84,2.579-0.84,2.579l-14.822,64.191
		h34.046c11.697,0,21.596-8.438,24.399-19.813c0,0.005-0.002,0.005-0.002,0.007h0.002L254.355,81.2H220.323z"/>
	<path fill="#F27227" d="M163.635,62.623c-11.398,0-21.018,7.72-24.004,18.255c-0.224,0.787-0.407,1.592-0.554,2.406l-23.11,100.093
		h34.017c11.657,0,21.461-8.076,24.2-18.979l0,0h0.009l23.498-101.774H163.635z"/>
	<path fill="#1169B0" d="M98.4,81.2c-11.035,0-20.472,7.508-23.859,17.91c-0.073,0.233-0.148,0.467-0.219,0.701l-0.568,2.238
		L59.27,164.798h34.868c10.417,0,19.361-6.913,22.834-16.598l1.381-5.971l14.085-61.03H98.4z"/>
	<path fill="#FFFFFF" d="M92.036,102.045l-0.014,0.055h-0.528c-2.43,0-4.72,0.866-6.817,2.578c-2.021,1.647-3.347,3.653-3.806,5.298
		h-0.019l-7.809,33.921l0.444-0.006c2.456,0,4.777-0.87,6.884-2.599c2.119-1.719,3.472-3.832,4.019-6.269l1.707-7.362l15.53,0.004
		c2.427,0,4.769-0.906,6.888-2.616c2.114-1.709,3.464-3.808,4.009-6.239l0.098-0.445l-24.363-0.018l1.623-6.994l21.102-0.031
		c2.429,0,4.723-0.857,6.816-2.554c2.088-1.701,3.394-3.838,3.979-6.247l0.108-0.449L92.036,102.045z"/>
	<path fill="#FFFFFF" d="M178.178,104.105c-1.342-1.345-3.091-2.026-5.203-2.026l-29.781-0.034l-9.618,41.799h0.012l-0.012,0.054
		l0.444-0.006c2.457,0,4.775-0.87,6.885-2.599c2.118-1.719,3.469-3.832,4.018-6.269l1.729-7.447l20.617,0.019
		c2.42,0,4.583-0.278,6.681-1.97c2.088-1.689,3.575-4.372,4.165-6.84l1.81-7.745c0.132-0.611,0.207-1.251,0.22-1.903
		C180.18,107.143,179.521,105.447,178.178,104.105z M168.885,118.341l-20.087-0.019l1.625-7.007l20.089,0.021L168.885,118.341z"/>
	<path fill="#FFFFFF" d="M238.77,104.13c-1.316-1.346-3.066-2.029-5.187-2.029h-13.117h-0.827h-17.48l-0.062,0.297
		c-0.141,0.656-0.217,1.26-0.228,1.841c-0.034,2.038,0.618,3.755,1.94,5.108c1.321,1.343,3.068,2.025,5.191,2.025h6.575
		l-7.489,32.526l0.445-0.006c2.456,0,4.775-0.87,6.884-2.599c2.119-1.719,3.47-3.832,4.017-6.269l5.489-23.653h15.503l0.064-0.296
		c0.133-0.621,0.205-1.26,0.217-1.899C240.738,107.166,240.092,105.469,238.77,104.13z"/>
</g>
<g>
	<path fill="#1169B0" d="M244.875,157.588c0-3.964,3.23-7.193,7.197-7.193c3.977,0,7.203,3.229,7.203,7.193
		c0,3.97-3.227,7.204-7.203,7.204C248.105,164.792,244.875,161.558,244.875,157.588 M257.527,157.588
		c0-3.365-2.436-5.806-5.455-5.806c-3.006,0-5.438,2.44-5.438,5.806c0,3.372,2.432,5.807,5.438,5.807
		C255.092,163.395,257.527,160.96,257.527,157.588 M249.305,153.479h3.031c1.953,0,3.018,0.68,3.018,2.397
		c0,1.397-0.803,2.071-2.141,2.192l2.193,3.566h-1.555l-2.111-3.514h-0.918v3.514h-1.518V153.479z M250.822,156.972h1.34
		c0.889,0,1.67-0.127,1.67-1.214c0-0.967-0.873-1.12-1.652-1.12h-1.357V156.972z"/>
</g>
<g>
	<path fill="#1169B0" d="M285.906,115.752v27.987h-5.027v-27.987h-7.432v-4.227h19.844v4.227H285.906z"/>
	<path fill="#1169B0" d="M315.762,131.638l-15.93,2.224c0.506,4.332,2.953,6.497,7.342,6.497c2.611,0,4.82-0.488,6.631-1.469
		l1.424,3.648c-2.166,1.129-4.953,1.69-8.365,1.69c-3.738,0-6.645-1.126-8.723-3.382c-2.047-2.193-3.068-5.234-3.068-9.12
		c0-3.708,0.963-6.705,2.893-8.988c1.957-2.314,4.598-3.472,7.918-3.472c3.086,0,5.52,0.95,7.299,2.848
		c1.75,1.899,2.625,4.466,2.625,7.699C315.807,130.614,315.791,131.222,315.762,131.638z M311.135,129.056
		c-0.029-4.151-1.811-6.229-5.338-6.229c-1.9,0-3.398,0.683-4.494,2.047c-1.158,1.394-1.752,3.322-1.781,5.784L311.135,129.056z"/>
	<path fill="#1169B0" d="M319.275,143.739v-34.929h4.895v34.929H319.275z"/>
	<path fill="#1169B0" d="M348.332,131.638l-15.93,2.224c0.506,4.332,2.951,6.497,7.342,6.497c2.611,0,4.82-0.488,6.631-1.469
		l1.424,3.648c-2.166,1.129-4.953,1.69-8.365,1.69c-3.738,0-6.646-1.126-8.723-3.382c-2.047-2.193-3.068-5.234-3.068-9.12
		c0-3.708,0.963-6.705,2.893-8.988c1.957-2.314,4.598-3.472,7.918-3.472c3.088,0,5.52,0.95,7.299,2.848
		c1.748,1.899,2.625,4.466,2.625,7.699C348.377,130.614,348.361,131.222,348.332,131.638z M343.705,129.056
		c-0.029-4.151-1.811-6.229-5.34-6.229c-1.898,0-3.396,0.683-4.492,2.047c-1.156,1.394-1.752,3.322-1.781,5.784L343.705,129.056z"/>
	<path fill="#1169B0" d="M367.51,142.583c-1.631,1.098-3.678,1.646-6.141,1.646c-2.938,0-5.355-0.993-7.252-2.981
		c-2.197-2.282-3.293-5.457-3.293-9.521s1.096-7.223,3.293-9.478c1.896-1.987,4.314-2.982,7.252-2.982
		c2.463,0,4.51,0.55,6.141,1.647l-1.602,3.515c-1.068-0.771-2.373-1.157-3.914-1.157c-1.752,0-3.178,0.668-4.273,2.001
		c-1.246,1.514-1.867,3.649-1.867,6.409c0,2.757,0.637,4.894,1.912,6.406c1.127,1.365,2.535,2.046,4.229,2.046
		c1.541,0,2.846-0.385,3.914-1.156L367.51,142.583z"/>
	<path fill="#1169B0" d="M387.844,140.626c-1.898,2.401-4.51,3.603-7.832,3.603s-5.932-1.201-7.828-3.603
		c-1.811-2.254-2.717-5.222-2.717-8.899s0.906-6.646,2.717-8.899c1.896-2.373,4.506-3.561,7.828-3.561s5.934,1.188,7.832,3.561
		c1.811,2.254,2.715,5.222,2.715,8.899S389.654,138.372,387.844,140.626z M384.24,125.452c-0.98-1.542-2.389-2.313-4.229-2.313
		c-1.838,0-3.248,0.771-4.227,2.313c-0.949,1.512-1.424,3.59-1.424,6.23c0,2.639,0.475,4.715,1.424,6.229
		c0.979,1.573,2.389,2.358,4.227,2.358c1.84,0,3.248-0.785,4.229-2.358c0.949-1.514,1.424-3.59,1.424-6.229
		C385.664,129.042,385.189,126.964,384.24,125.452z"/>
	<path fill="#1169B0" d="M421.615,143.739v-16.24c0-1.364-0.416-2.433-1.246-3.204c-0.83-0.741-1.941-1.111-3.334-1.111
		c-1.93,0-3.398,0.533-4.408,1.602v18.954h-4.895v-16.686c0-1.187-0.445-2.135-1.332-2.848c-0.891-0.682-2.078-1.022-3.563-1.022
		c-1.631,0-2.994,0.236-4.094,0.712v19.844h-4.85v-22.781c2.73-1.126,5.609-1.691,8.633-1.691c3.443,0,5.992,0.86,7.652,2.582
		c2.018-1.722,4.674-2.582,7.967-2.582c2.551,0,4.582,0.699,6.096,2.092c1.482,1.395,2.223,3.278,2.223,5.65v16.73H421.615z"/>
</g>
</svg>
